<svg id="visual" viewBox="0 0 900 600" width="900" height="600" xmlns="http://www.w3.org/2000/svg" xmlns:xlink="http://www.w3.org/1999/xlink" version="1.1"><rect x="0" y="0" width="900" height="600" fill="#09010b"></rect><g transform="translate(443.12396261184955 292.1485878124773)"><path d="M130.2 -200.2C175.7 -173.3 224.3 -149 248 -109.6C271.7 -70.2 270.5 -15.7 256.1 32C241.7 79.7 214.2 120.7 183.3 161.8C152.3 202.8 118 243.9 73.9 261.1C29.9 278.3 -23.9 271.5 -70.3 252.1C-116.6 232.6 -155.4 200.5 -187.6 162.8C-219.9 125.2 -245.5 82.1 -251.4 36.6C-257.2 -8.9 -243.2 -56.8 -218.3 -94.8C-193.4 -132.9 -157.5 -161.1 -119.3 -191.3C-81.1 -221.5 -40.5 -253.8 0.9 -255.2C42.4 -256.6 84.7 -227.1 130.2 -200.2" fill="#9300ba"></path></g></svg>